<?xml version="1.0" encoding="UTF-8"?>
<!DOCTYPE svg PUBLIC "-//W3C//DTD SVG 1.1//EN" "http://www.w3.org/Graphics/SVG/1.1/DTD/svg11.dtd">
<svg version="1.1" xmlns="http://www.w3.org/2000/svg" xmlns:xlink="http://www.w3.org/1999/xlink" x="0" y="0" width="412.013" height="237.675" viewBox="0, 0, 412.013, 237.675">
  <g id="Layer_1">
    <path d="M115.409,50.785 L298.412,50.785 L298.412,204.811 L115.409,204.811 z" fill="#FFFFFF" id="rect29147"/>
    <path d="M312.979,169.986 C311.97,171.103 310.736,171.983 309.463,172.741 C306.891,174.248 304.093,175.204 301.302,176.057 C295.677,177.644 289.935,178.54 284.193,179.113 C272.702,180.275 261.182,180.206 249.723,179.499 C243.994,179.12 238.274,178.571 232.569,177.774 C229.719,177.367 226.867,176.922 224.021,176.356 C221.166,175.791 218.34,175.169 215.437,174.2 C214.68,173.926 214.031,173.74 213.099,173.251 C212.23,172.819 211.477,172.231 210.82,171.605 C209.516,170.331 208.638,168.871 208.003,167.408 C207.288,165.735 206.814,164.057 206.464,162.382 C206.104,164.056 205.624,165.732 204.896,167.402 C204.255,168.862 203.375,170.313 202.079,171.586 C201.432,172.218 200.671,172.793 199.813,173.243 C198.877,173.715 198.211,173.926 197.463,174.19 C194.557,175.159 191.73,175.79 188.874,176.351 C186.027,176.921 183.175,177.359 180.323,177.771 C174.616,178.571 168.896,179.117 163.164,179.498 C151.702,180.205 140.176,180.276 128.681,179.115 C122.938,178.547 117.194,177.642 111.566,176.063 C108.773,175.208 105.976,174.248 103.401,172.746 C102.126,171.99 100.891,171.111 99.883,169.989 C98.89,168.871 98.168,167.43 98.183,165.982 C98.547,167.38 99.442,168.493 100.541,169.283 C101.625,170.099 102.872,170.684 104.159,171.149 C106.743,172.071 109.475,172.627 112.231,173.003 C117.743,173.805 123.364,174.009 128.976,174.139 C140.216,174.266 151.497,173.825 162.75,173.104 C168.377,172.746 174,172.295 179.595,171.737 C185.158,171.162 190.841,170.534 196.057,169.391 C197.466,169.046 198.117,168.848 198.967,168.164 C199.779,167.516 200.505,166.559 201.156,165.492 C202.453,163.329 203.321,160.701 204.006,158.038 C204.729,155.26 205.249,152.399 205.654,149.498 C205.783,146.746 206.081,144.013 206.548,141.309 C206.99,144.01 207.264,146.736 207.371,149.482 C207.752,152.393 208.25,155.263 208.955,158.051 C209.609,160.72 210.475,163.343 211.752,165.51 C212.397,166.579 213.118,167.535 213.926,168.175 C214.764,168.837 215.438,169.051 216.84,169.399 C222.056,170.538 227.736,171.165 233.297,171.738 C238.891,172.294 244.511,172.748 250.136,173.105 C261.386,173.825 272.663,174.265 283.898,174.139 C286.708,174.109 289.507,173.959 292.303,173.813 C295.1,173.663 297.886,173.407 300.635,172.997 C303.391,172.625 306.123,172.071 308.703,171.145 C309.989,170.679 311.234,170.094 312.321,169.282 C313.433,168.497 314.291,167.37 314.683,165.982 C314.671,167.42 313.983,168.875 312.979,169.986 M290.06,193.368 L284.926,197.556 L288.446,191.87 L284.376,186.587 L289.901,190.21 L295.035,186.023 L291.514,191.708 L295.584,196.989 z M211.209,194.562 L206.074,198.75 L209.595,193.065 L205.523,187.782 L211.049,191.405 L216.183,187.216 L212.662,192.901 L216.732,198.184 z M127.16,197.59 L122.027,201.778 L125.546,196.092 L121.477,190.81 L127.001,194.433 L132.135,190.245 L128.615,195.93 L132.686,201.211 z M391.826,108.741 C390.407,106.614 388.678,104.701 386.7,103.016 C384.699,101.299 382.555,99.959 379.945,98.62 C374.922,95.952 369.497,94.282 363.933,93.588 C358.363,92.934 352.638,93.324 347.086,94.748 C344.309,95.455 341.583,96.424 338.943,97.615 C336.297,98.788 333.738,100.202 331.344,101.85 C326.556,105.13 322.274,109.258 319.301,114.044 C317.793,116.455 316.854,118.851 315.935,121.919 C315.04,124.844 314.349,127.845 313.926,130.891 C313.033,136.974 313.1,143.27 314.409,149.405 C315.092,152.455 316.044,155.488 317.469,158.326 C318.119,159.662 318.885,160.95 319.763,162.168 C321.074,163.026 322.372,163.903 323.647,164.813 C328.535,168.301 333.156,172.197 337.104,176.675 C332.771,172.568 327.879,169.15 322.775,166.158 C317.664,163.168 312.324,160.603 306.878,158.311 C295.978,153.731 284.643,150.266 273.201,147.365 C261.751,144.475 250.141,142.234 238.491,140.519 C232.666,139.665 226.828,138.952 221.002,138.413 C215.971,137.944 210.934,137.627 206.007,137.533 C201.079,137.627 196.043,137.944 191.013,138.413 C185.186,138.952 179.347,139.665 173.522,140.519 C161.873,142.234 150.263,144.475 138.813,147.365 C127.371,150.266 116.037,153.731 105.136,158.311 C99.69,160.603 94.35,163.168 89.238,166.158 C84.136,169.15 79.244,172.568 74.909,176.675 C78.857,172.197 83.479,168.301 88.366,164.813 C89.643,163.903 90.939,163.026 92.252,162.168 C93.13,160.95 93.895,159.662 94.545,158.326 C95.971,155.488 96.922,152.455 97.605,149.405 C98.914,143.27 98.98,136.974 98.088,130.891 C97.665,127.845 96.974,124.844 96.079,121.919 C95.159,118.851 94.221,116.455 92.713,114.044 C89.738,109.258 85.459,105.13 80.671,101.85 C78.275,100.202 75.716,98.788 73.071,97.615 C70.431,96.424 67.705,95.455 64.929,94.748 C59.376,93.324 53.651,92.934 48.082,93.588 C42.517,94.282 37.092,95.952 32.069,98.62 C29.459,99.959 27.314,101.299 25.314,103.016 C23.336,104.701 21.607,106.614 20.187,108.741 C14.351,117.13 13.598,129.17 17.573,139.247 C19.521,144.287 22.691,148.778 26.688,151.884 C28.681,153.427 30.955,154.63 33.197,155.315 C35.575,156.052 38.303,156.397 41.006,156.352 C43.714,156.294 46.443,155.927 49.02,155.128 C51.587,154.316 54.01,153.132 56.168,151.556 C58.327,149.979 60.171,147.971 61.71,145.652 C62.513,144.425 63.065,143.43 63.487,142.228 C63.904,141.057 64.139,139.822 64.207,138.538 C64.498,133.382 61.561,127.667 57.003,123.806 C55.644,122.657 54.132,121.655 52.502,120.877 C54.154,122.552 55.175,124.849 55.175,127.386 C55.175,132.51 51.022,136.664 45.898,136.664 C40.774,136.664 36.622,132.51 36.622,127.386 C36.622,123.511 38.999,120.195 42.374,118.806 C44.467,117.797 46.873,117.295 49.285,117.341 C52.811,117.432 56.307,118.535 59.406,120.315 C62.523,122.086 65.294,124.537 67.486,127.546 C69.674,130.547 71.248,134.202 71.679,138.201 C72.229,150.762 63.884,160.544 53.391,165.301 C54.926,168.04 56.358,170.798 57.703,173.575 C60.572,179.538 63.078,185.57 65.348,191.644 C67.604,197.722 69.641,203.838 71.477,209.997 C72.777,214.373 73.979,218.706 75.088,223.137 C78.838,222.203 82.545,221.36 86.306,220.542 C92.049,219.316 97.803,218.207 103.571,217.206 C115.104,215.205 126.689,213.627 138.302,212.472 C161.255,210.171 184.33,209.541 207.231,210.82 C230.133,209.541 253.208,210.171 276.161,212.472 C287.773,213.627 299.357,215.205 310.893,217.206 C316.66,218.207 322.414,219.316 328.156,220.542 C331.918,221.36 335.624,222.203 339.375,223.137 C340.484,218.706 341.686,214.373 342.986,209.997 C344.821,203.838 346.858,197.722 349.115,191.644 C351.385,185.57 353.891,179.538 356.76,173.575 C357.968,171.081 359.259,168.602 360.616,166.138 C349.209,161.763 339.751,151.548 340.335,138.201 C340.766,134.202 342.341,130.547 344.527,127.546 C346.721,124.537 349.491,122.086 352.607,120.315 C355.707,118.535 359.203,117.432 362.729,117.341 C365.141,117.295 367.547,117.797 369.64,118.806 C373.015,120.195 375.393,123.511 375.393,127.386 C375.393,132.51 371.24,136.664 366.116,136.664 C360.992,136.664 356.839,132.51 356.839,127.386 C356.839,124.849 357.859,122.552 359.512,120.877 C357.883,121.655 356.37,122.657 355.012,123.806 C350.452,127.667 347.517,133.382 347.807,138.538 C347.875,139.822 348.11,141.057 348.526,142.228 C348.949,143.43 349.5,144.425 350.305,145.652 C351.843,147.971 353.688,149.979 355.848,151.556 C358.004,153.132 360.427,154.316 362.993,155.128 C364.242,155.515 365.525,155.795 366.826,155.995 L366.828,155.991 L366.837,155.997 C368.218,156.206 369.614,156.323 371.008,156.352 C373.711,156.397 376.439,156.052 378.816,155.315 C381.059,154.63 383.333,153.427 385.326,151.884 C389.323,148.778 392.493,144.287 394.441,139.247 C398.416,129.17 397.663,117.13 391.826,108.741 M121.397,75.366 L126.53,71.177 L123.011,76.862 L127.08,82.145 L121.556,78.523 L116.421,82.711 L119.942,77.026 L115.872,71.742 z M92.086,93.614 C92.312,94.419 92.411,95.256 92.337,96.169 C93.521,97.371 94.655,98.623 95.725,99.937 C98.04,102.79 100.103,105.895 101.681,109.311 C102.448,111.035 103.15,112.791 103.666,114.642 C103.922,115.573 104.176,116.509 104.326,117.342 C104.514,118.199 104.676,119.062 104.805,119.93 C105.357,123.396 105.684,126.895 105.663,130.393 C105.622,137.377 104.402,144.361 101.705,150.724 C100.375,153.842 98.707,156.815 96.616,159.45 C98.962,158.044 101.347,156.699 103.763,155.415 C114.411,149.773 125.602,145.22 136.968,141.226 C144.512,138.585 152.158,136.251 159.876,134.138 L147.306,52.358 L142.786,50.125 C136.391,46.966 128.718,46.264 121.486,47.782 C114.247,49.305 107.392,52.878 102.086,57.975 C99.44,60.529 97.172,63.447 95.409,66.635 C93.66,69.834 92.407,73.291 91.706,76.893 C90.999,80.494 90.846,84.238 91.212,87.989 C91.383,89.864 91.669,91.746 92.086,93.614 M180.295,54.729 L185.429,50.539 L181.908,56.226 L185.979,61.508 L180.453,57.885 L175.32,62.073 L178.839,56.389 L174.77,51.107 z M171.697,131.079 C177.577,129.671 183.497,128.402 189.475,127.301 C194.1,126.449 198.75,125.707 203.509,125.141 L204.136,16.093 C199.014,14.933 191.906,16.11 186.716,16.547 C181.14,17.109 175.61,18.643 170.538,21.31 C165.457,23.935 160.809,27.598 156.945,31.972 C155.021,34.165 153.33,36.559 151.917,39.047 C150.509,41.501 149.402,44.217 149.071,46.497 L148.218,52.363 L167.243,132.203 C168.728,131.829 170.208,131.436 171.697,131.079 M236.057,54.729 L241.19,50.539 L237.67,56.226 L241.74,61.508 L236.215,57.885 L231.082,62.073 L234.602,56.389 L230.531,51.107 z M222.539,127.301 C228.519,128.402 234.438,129.671 240.316,131.079 C243.154,131.76 245.981,132.476 248.8,133.219 L264.185,52.815 L263.964,52.926 L262.823,46.508 C262.629,45.415 262.213,44.148 261.696,42.909 C261.189,41.66 260.543,40.405 259.826,39.183 C258.385,36.735 256.669,34.388 254.727,32.243 C250.854,27.941 246.221,24.366 241.198,21.771 C236.182,19.144 230.735,17.6 225.224,16.972 C219.84,16.385 212.331,15.299 206.94,16.374 L210.844,125.443 C214.789,125.964 218.676,126.589 222.539,127.301 M289.901,75.366 L295.035,71.177 L291.514,76.862 L295.584,82.145 L290.06,78.523 L284.926,82.711 L288.446,77.026 L284.376,71.742 z M275.045,141.226 C286.411,145.22 297.604,149.773 308.25,155.415 C310.668,156.697 313.051,158.044 315.398,159.45 C313.307,156.815 311.64,153.842 310.31,150.724 C307.611,144.361 306.392,137.377 306.351,130.393 C306.33,126.895 306.656,123.396 307.209,119.93 C307.338,119.062 307.499,118.199 307.688,117.342 C307.839,116.509 308.092,115.573 308.349,114.642 C308.864,112.791 309.565,111.035 310.333,109.311 C311.91,105.895 313.975,102.79 316.29,99.937 C317.34,98.648 318.453,97.418 319.612,96.237 C319.534,95.294 319.678,94.448 319.913,93.61 C320.324,91.742 320.603,89.86 320.768,87.983 C321.089,84.233 320.926,80.495 320.158,76.92 C318.686,69.749 314.853,63.301 309.529,58.391 C306.873,55.928 303.843,53.855 300.595,52.224 C297.367,50.555 293.904,49.327 290.358,48.599 C283.272,47.066 275.854,47.594 269.279,50.235 L269.277,50.236 L265.017,52.392 L256.135,135.249 C262.495,137.067 268.806,139.042 275.045,141.226" fill="#ECA265" id="path28578"/>
    <path d="M314.683,165.982 C314.671,167.42 313.983,168.876 312.979,169.985 C311.97,171.104 310.736,171.983 309.463,172.741 C306.891,174.248 304.094,175.204 301.302,176.056 C295.677,177.643 289.935,178.54 284.193,179.112 C272.702,180.276 261.182,180.207 249.723,179.499 C243.994,179.119 238.274,178.57 232.569,177.774 C229.721,177.366 226.867,176.921 224.022,176.357 C221.166,175.79 218.34,175.168 215.437,174.201 C214.68,173.927 214.031,173.74 213.098,173.25 C212.23,172.82 211.477,172.231 210.82,171.605 C209.516,170.33 208.638,168.871 208.003,167.407 C207.289,165.734 206.814,164.057 206.464,162.382 C206.105,164.056 205.624,165.732 204.896,167.402 C204.255,168.862 203.376,170.313 202.079,171.586 C201.432,172.217 200.671,172.794 199.813,173.243 C198.877,173.716 198.211,173.927 197.463,174.191 C194.558,175.16 191.73,175.789 188.875,176.351 C186.027,176.92 183.175,177.359 180.322,177.771 C174.617,178.57 168.895,179.116 163.163,179.498 C151.702,180.206 140.176,180.276 128.681,179.114 C122.938,178.547 117.194,177.641 111.566,176.062 C108.774,175.208 105.976,174.248 103.402,172.746 C102.126,171.99 100.89,171.112 99.883,169.988 C98.89,168.871 98.167,167.431 98.184,165.982 C98.547,167.379 99.442,168.493 100.541,169.284 C101.625,170.099 102.871,170.684 104.16,171.148 C106.744,172.072 109.475,172.626 112.231,173.002 C117.743,173.805 123.364,174.009 128.976,174.138 C140.216,174.267 151.497,173.824 162.751,173.103 C168.377,172.746 174,172.295 179.595,171.736 C185.158,171.162 190.842,170.533 196.057,169.391 C197.466,169.047 198.118,168.848 198.967,168.163 C199.778,167.515 200.505,166.559 201.156,165.491 C202.453,163.328 203.322,160.701 204.006,158.038 C204.729,155.259 205.25,152.4 205.655,149.497 C205.783,146.745 206.081,144.013 206.549,141.309 C206.99,144.01 207.264,146.736 207.371,149.483 C207.752,152.393 208.25,155.262 208.956,158.051 C209.609,160.719 210.476,163.343 211.752,165.511 C212.397,166.579 213.117,167.535 213.928,168.175 C214.764,168.838 215.437,169.052 216.84,169.398 C222.056,170.537 227.736,171.165 233.297,171.737 C238.891,172.294 244.511,172.749 250.136,173.104 C261.386,173.824 272.663,174.266 283.898,174.138 C286.708,174.108 289.508,173.96 292.303,173.814 C295.1,173.662 297.886,173.408 300.635,172.998 C303.391,172.624 306.123,172.072 308.703,171.146 C309.989,170.679 311.234,170.094 312.321,169.282 C313.433,168.497 314.291,167.371 314.683,165.982 M394.441,139.247 C392.493,144.287 389.323,148.777 385.326,151.885 C383.333,153.428 381.059,154.63 378.816,155.316 C376.439,156.051 373.711,156.396 371.008,156.353 C369.614,156.323 368.218,156.207 366.837,155.997 L366.828,155.991 L366.826,155.995 C365.525,155.796 364.242,155.515 362.993,155.127 C360.427,154.316 358.004,153.131 355.848,151.555 C353.688,149.978 351.843,147.972 350.305,145.651 C349.5,144.425 348.949,143.43 348.526,142.228 C348.11,141.056 347.875,139.821 347.807,138.539 C347.517,133.383 350.452,127.666 355.012,123.806 C356.37,122.657 357.883,121.655 359.512,120.877 C357.859,122.551 356.839,124.848 356.839,127.387 C356.839,132.509 360.992,136.663 366.116,136.663 C371.239,136.663 375.393,132.509 375.393,127.387 C375.393,123.51 373.015,120.195 369.64,118.806 C367.547,117.797 365.141,117.295 362.729,117.341 C359.203,117.433 355.707,118.534 352.607,120.316 C349.491,122.086 346.722,124.537 344.527,127.546 C342.341,130.546 340.766,134.202 340.335,138.2 C339.751,151.549 349.209,161.763 360.616,166.138 C359.259,168.602 357.968,171.08 356.76,173.576 C353.891,179.538 351.385,185.569 349.115,191.643 C346.859,197.721 344.821,203.838 342.986,209.998 C341.686,214.373 340.484,218.707 339.375,223.138 C335.624,222.203 331.918,221.36 328.156,220.541 C322.414,219.316 316.66,218.206 310.893,217.206 C299.358,215.206 287.773,213.628 276.161,212.471 C253.209,210.17 230.133,209.541 207.231,210.82 C184.33,209.541 161.255,210.17 138.302,212.471 C126.689,213.628 115.105,215.206 103.571,217.206 C97.804,218.206 92.049,219.316 86.307,220.541 C82.544,221.36 78.839,222.203 75.087,223.138 C73.979,218.707 72.777,214.373 71.477,209.998 C69.641,203.838 67.604,197.721 65.348,191.643 C63.078,185.569 60.572,179.538 57.703,173.576 C56.359,170.799 54.925,168.04 53.392,165.301 C63.883,160.543 72.229,150.761 71.679,138.2 C71.248,134.202 69.673,130.546 67.486,127.546 C65.293,124.537 62.523,122.086 59.406,120.316 C56.307,118.534 52.81,117.433 49.286,117.341 C46.874,117.295 44.468,117.797 42.375,118.806 C38.999,120.195 36.622,123.51 36.622,127.387 C36.622,132.509 40.775,136.663 45.898,136.663 C51.022,136.663 55.175,132.509 55.175,127.387 C55.175,124.848 54.153,122.551 52.503,120.877 C54.132,121.655 55.644,122.657 57.002,123.806 C61.562,127.666 64.497,133.383 64.206,138.539 C64.14,139.821 63.903,141.056 63.487,142.228 C63.064,143.43 62.514,144.425 61.71,145.651 C60.172,147.972 58.327,149.978 56.167,151.555 C54.01,153.131 51.588,154.316 49.02,155.127 C46.444,155.927 43.715,156.293 41.005,156.353 C38.304,156.396 35.575,156.051 33.197,155.316 C30.955,154.63 28.681,153.428 26.688,151.885 C22.691,148.777 19.52,144.287 17.573,139.247 C13.598,129.171 14.351,117.13 20.188,108.742 C21.607,106.615 23.337,104.701 25.314,103.017 C27.314,101.3 29.46,99.96 32.069,98.621 C37.092,95.951 42.517,94.282 48.082,93.587 C53.651,92.933 59.376,93.324 64.929,94.747 C67.705,95.455 70.431,96.425 73.07,97.615 C75.717,98.789 78.276,100.202 80.671,101.851 C85.458,105.13 89.739,109.259 92.713,114.043 C94.221,116.455 95.16,118.851 96.079,121.92 C96.975,124.845 97.665,127.845 98.089,130.89 C98.981,136.973 98.914,143.271 97.605,149.405 C96.922,152.455 95.97,155.489 94.545,158.326 C93.895,159.662 93.129,160.95 92.252,162.168 C90.94,163.026 89.643,163.904 88.367,164.813 C83.478,168.301 78.857,172.197 74.91,176.674 C79.244,172.568 84.135,169.151 89.238,166.158 C94.349,163.168 99.69,160.603 105.136,158.311 C116.036,153.731 127.372,150.266 138.813,147.364 C150.263,144.476 161.873,142.234 173.522,140.519 C179.347,139.666 185.186,138.952 191.011,138.412 C196.042,137.944 201.079,137.627 206.007,137.533 C210.934,137.627 215.971,137.944 221.003,138.412 C226.828,138.952 232.666,139.666 238.491,140.519 C250.142,142.234 261.751,144.476 273.201,147.364 C284.643,150.266 295.978,153.731 306.878,158.311 C312.324,160.603 317.664,163.168 322.775,166.158 C327.88,169.151 332.771,172.568 337.104,176.674 C333.156,172.197 328.535,168.301 323.647,164.813 C322.372,163.904 321.074,163.026 319.763,162.168 C318.885,160.95 318.119,159.662 317.469,158.326 C316.044,155.489 315.092,152.455 314.409,149.405 C313.101,143.271 313.033,136.973 313.926,130.89 C314.349,127.845 315.04,124.845 315.936,121.92 C316.854,118.851 317.793,116.455 319.301,114.043 C322.274,109.259 326.556,105.13 331.344,101.851 C333.738,100.202 336.297,98.789 338.943,97.615 C341.583,96.425 344.309,95.455 347.086,94.747 C352.639,93.324 358.363,92.933 363.933,93.587 C369.497,94.282 374.922,95.951 379.945,98.621 C382.555,99.96 384.699,101.3 386.7,103.017 C388.678,104.701 390.407,106.615 391.826,108.742 C397.663,117.13 398.416,129.171 394.441,139.247 M91.706,76.894 C92.406,73.292 93.66,69.833 95.408,66.636 C97.173,63.447 99.44,60.529 102.085,57.975 C107.392,52.877 114.248,49.306 121.486,47.782 C128.718,46.264 136.392,46.967 142.786,50.126 L147.306,52.359 L159.876,134.139 C152.158,136.25 144.512,138.584 136.969,141.225 C125.603,145.22 114.411,149.772 103.763,155.415 C101.346,156.698 98.963,158.043 96.616,159.449 C98.707,156.815 100.375,153.843 101.704,150.725 C104.401,144.361 105.623,137.377 105.664,130.393 C105.684,126.895 105.358,123.396 104.805,119.931 C104.675,119.062 104.515,118.199 104.327,117.342 C104.175,116.508 103.922,115.574 103.666,114.642 C103.15,112.791 102.448,111.035 101.681,109.311 C100.104,105.896 98.04,102.79 95.725,99.937 C94.655,98.624 93.521,97.371 92.337,96.169 C92.41,95.257 92.312,94.419 92.086,93.614 C91.669,91.746 91.384,89.865 91.212,87.988 C90.845,84.239 90.998,80.495 91.706,76.894 M149.071,46.496 C149.402,44.218 150.508,41.501 151.917,39.046 C153.33,36.559 155.021,34.165 156.945,31.973 C160.809,27.598 165.456,23.935 170.538,21.309 C175.611,18.643 181.14,17.109 186.716,16.547 C191.906,16.11 199.014,14.933 204.136,16.093 L203.509,125.141 C198.75,125.706 194.1,126.45 189.476,127.301 C183.495,128.402 177.578,129.671 171.698,131.079 C170.208,131.436 168.728,131.829 167.243,132.203 L148.219,52.363 z M225.225,16.973 C230.735,17.599 236.182,19.144 241.198,21.772 C246.221,24.366 250.854,27.941 254.727,32.244 C256.669,34.387 258.385,36.736 259.826,39.182 C260.543,40.405 261.189,41.659 261.696,42.909 C262.213,44.149 262.629,45.415 262.823,46.508 L263.964,52.926 L264.185,52.814 L248.8,133.22 C245.981,132.475 243.154,131.76 240.316,131.079 C234.438,129.671 228.52,128.402 222.539,127.301 C218.676,126.59 214.789,125.964 210.844,125.443 L206.94,16.374 C212.33,15.298 219.84,16.386 225.225,16.973 M269.277,50.235 L269.279,50.234 C275.854,47.594 283.272,47.067 290.358,48.599 C293.904,49.327 297.367,50.555 300.595,52.224 C303.843,53.855 306.873,55.929 309.529,58.391 C314.853,63.302 318.686,69.75 320.158,76.92 C320.926,80.496 321.089,84.233 320.768,87.984 C320.603,89.86 320.324,91.742 319.913,93.611 C319.678,94.447 319.534,95.295 319.612,96.237 C318.453,97.418 317.34,98.649 316.29,99.937 C313.975,102.79 311.91,105.896 310.333,109.311 C309.565,111.035 308.865,112.791 308.349,114.642 C308.092,115.574 307.839,116.508 307.688,117.342 C307.499,118.199 307.338,119.062 307.209,119.931 C306.656,123.396 306.33,126.895 306.351,130.393 C306.392,137.377 307.611,144.361 310.31,150.725 C311.64,153.843 313.307,156.815 315.398,159.449 C313.051,158.043 310.668,156.697 308.25,155.415 C297.604,149.772 286.411,145.22 275.045,141.225 C268.806,139.042 262.496,137.067 256.135,135.248 L265.017,52.393 z M411.945,122.346 C411.513,114.597 409.034,106.766 404.56,100.117 C402.321,96.8 399.573,93.838 396.538,91.303 C393.539,88.769 390.059,86.654 386.809,85.066 C380.15,81.79 372.803,79.643 365.314,79.061 C357.832,78.546 350.267,79.373 343.259,81.729 C337.721,83.525 332.496,86.121 327.761,89.401 C327.79,89.245 327.831,89.089 327.858,88.931 C328.642,84.587 328.77,80.056 328.163,75.571 C327.565,71.087 326.182,66.67 324.126,62.59 C322.05,58.523 319.334,54.772 316.081,51.584 C312.846,48.38 309.076,46.026 305.085,43.867 C301.073,41.746 296.506,40.367 292.054,39.413 C285.029,37.957 277.584,38.621 270.609,40.814 C270.099,39.01 269.703,36.248 268.974,34.598 C267.493,31.273 265.696,28.146 263.606,25.229 C259.439,19.392 254.205,14.279 248.134,10.208 C242.08,6.111 235.184,3.703 227.967,2.048 C222.131,0.728 216.1,-0.196 210.182,0.035 L206.007,0.081 L201.099,0.14 C200.921,0.141 200.746,0.137 200.568,0.142 C199.649,0.148 198.736,0.128 197.818,0.158 L195.064,0.306 C191.396,0.589 187.741,1.1 184.164,1.982 C177.012,3.699 170.155,6.612 164.157,10.67 C158.146,14.709 152.926,19.734 148.75,25.499 C146.641,28.367 144.821,31.45 143.312,34.734 C142.561,36.379 141.891,38.078 141.362,39.881 C141.331,39.988 141.304,40.096 141.271,40.203 C134.212,38.252 126.326,37.601 119.342,39.081 C110.589,40.926 102.327,44.889 95.835,51.124 C89.325,57.309 84.987,66.262 83.711,75.208 C83.044,79.668 83.453,84.581 84.189,88.926 C84.217,89.095 84.261,89.259 84.293,89.428 C79.546,86.134 74.309,83.53 68.755,81.729 C61.747,79.373 54.182,78.546 46.7,79.061 C39.211,79.643 31.865,81.79 25.206,85.066 C21.956,86.654 18.475,88.769 15.476,91.303 C12.441,93.838 9.693,96.8 7.455,100.117 C2.979,106.766 0.501,114.597 0.069,122.346 C-0.333,130.111 1.033,137.848 4.163,144.899 C7.287,151.913 12.144,158.428 18.883,162.916 C22.244,165.139 25.951,166.888 30.079,167.781 C30.999,167.976 31.913,168.122 32.823,168.243 C36.287,172.385 39.51,176.996 42.499,181.843 C45.622,186.928 48.512,192.259 51.217,197.725 C53.911,203.198 56.439,208.797 58.787,214.488 C61.126,220.15 63.364,226.01 65.28,231.696 L67.294,237.675 L72.68,235.671 C77.828,233.756 83.382,231.979 88.826,230.317 C94.31,228.662 99.838,227.112 105.399,225.664 C116.521,222.769 127.771,220.271 139.111,218.184 C161.526,214.039 184.306,211.508 207.231,210.886 C230.156,211.508 252.937,214.039 275.352,218.184 C286.69,220.271 297.941,222.769 309.063,225.664 C314.625,227.112 320.153,228.662 325.637,230.317 C331.081,231.979 336.635,233.756 341.783,235.671 L347.168,237.675 L349.183,231.696 C351.098,226.01 353.337,220.15 355.676,214.488 C358.023,208.797 360.552,203.198 363.245,197.725 C365.95,192.259 368.841,186.928 371.964,181.843 C375.068,176.809 378.417,172.02 382.035,167.754 C386.123,166.857 389.797,165.121 393.131,162.916 C399.871,158.428 404.727,151.913 407.851,144.899 C410.981,137.848 412.347,130.111 411.945,122.346" fill="#0B0B09" id="path28580"/>
  </g>
</svg>
